<svg xmlns="http://www.w3.org/2000/svg" version="1.1" xmlns:xlink="http://www.w3.org/1999/xlink" width="1500" height="538" viewBox="0 0 1500 538"><svg xml:space="preserve" width="1500" height="538" data-version="2" data-id="lg_qjzHJdvq7miwoEg1RB" viewBox="0 0 574 538" x="0" y="0"><rect width="100%" height="100%" fill="transparent"></rect><path fill="#750662" d="M159.73 392.23q7.31 2.04 12.45 4.67t8.67 5.48q3.52 2.85 5.56 5.82 2.04 2.97 3.15 5.69 1.1 2.72 1.4 5.06.29 2.33.29 3.95 0 5.95-2.25 10.62-2.25 4.67-6.07 8.24-3.82 3.57-8.88 6.03-5.06 2.47-10.58 4.04-5.52 1.57-11.3 2.29-5.77.72-10.96.72-8.41 0-17.37-1.7-8.97-1.69-18.14-5.52-2.04-.85-2.04-2.97 0-1.45 1.02-2.34 1.02-.89 2.21-.89.59 0 1.27.25 7.9 3.32 16.23 5.02 8.33 1.7 16.74 1.7 11.47 0 19.71-2.21t13.55-5.82q5.31-3.61 7.86-8.16 2.55-4.54 2.55-9.22 0-5.18-2.85-9.6-2.84-4.42-8.07-7.9-5.22-3.48-12.53-5.95-7.31-2.46-16.23-3.65-5.86 1.02-11.38 1.45-5.53.42-10.2.42h-1.95q-.6 0-1.11-.08-6.11 14.69-14.57 25.4-8.45 10.7-18.01 17.71-9.56 7.01-19.63 10.37-10.06 3.35-19.32 3.35-9.61 0-17.63-2.67-8.03-2.68-13.81-7.61-5.78-4.92-9.01-11.93-3.22-7.01-3.22-15.68 0-9 3.52-18.65 3.53-9.64 10.49-19.58 6.63-9.35 14.7-16.78 8.07-7.43 16.95-13.04 8.88-5.61 18.31-9.6 9.43-4 18.73-6.54 9.31-2.55 18.19-3.7 8.87-1.15 16.69-1.15 6.37 0 12.15.43 5.78.42 11.05 1.27 3.05-3.4 4.92-4.88 1.87-1.49 2.13-1.66 1.02-.51 1.78-.51 1.19 0 2.13.68.93.68.93 1.95 0 1.7-1.19 2.85-1.19 1.15-3.23 3.1 15.55 3.82 23.79 11.51 8.24 7.69 8.24 18.99 0 6.2-2.04 11.13-2.04 4.93-5.56 8.67-3.53 3.74-8.24 6.5-4.72 2.76-9.99 4.63m-14.52-2.81q3.73-.68 7.68-1.78 3.96-1.1 7.74-2.68 3.78-1.57 7.18-3.73 3.39-2.17 5.9-5.1 2.51-2.93 3.99-6.59 1.49-3.65 1.49-8.32 0-9.52-7.9-15.72-7.9-6.2-22.69-9.18-4.24 5.27-7.98 11.64-3.74 6.37-6.88 13.21-3.15 6.84-5.65 13.85-2.51 7.01-4.12 13.55 1.69-.08 3.14-.08h2.46q3.32 0 7.22.21 3.91.21 8.42.72m-3.83-54.29q-4.33-.59-8.92-.85-4.59-.25-9.6-.25-7.48 0-15.89 1.1-8.41 1.11-17.24 3.49-8.84 2.38-17.8 6.16-8.97 3.78-17.42 9.09-8.45 5.31-16.1 12.36-7.65 7.05-13.93 15.89-6.38 9-9.6 17.75-3.23 8.76-3.23 16.66 0 7.39 2.67 13.25 2.68 5.86 7.61 9.9 4.93 4.03 11.81 6.2 6.88 2.17 15.21 2.17 8.32 0 17.33-3.02 9-3.02 17.58-9.26 8.59-6.24 16.32-15.8t13.51-22.73q-1.53 0-3.15-.89-1.61-.89-1.61-2.85 0-2.04 1.95-2.93 1.96-.89 6.12-1.49 2.29-6.96 4.67-13.93t5.27-13.76q2.89-6.8 6.37-13.38 3.48-6.59 8.07-12.88"></path><rect width="185.97" height="132.62" x="-92.98" y="-66.31" fill="none" rx="0" ry="0" transform="translate(98.77 389.03)"></rect><path fill="#750662" d="M232.04 441.76q-2.98 4.84-6.93 7.65-3.95 2.8-7.94 2.8-3.23 0-5.78-1.19-2.55-1.19-4.42-3.36-1.87-2.16-2.84-5.22-.98-3.06-.98-6.88 0-5.95 1.15-10.54 1.14-4.59 2.5-7.69 1.36-3.1 2.55-4.71l1.19-1.62q.43-.51 1.06-.76.64-.26 1.32-.26 1.36 0 2.25.98.89.98.89 2.25 0 .51-.21 1.02t-.47 1.02q-.42.77-1.36 2.34-.93 1.57-1.95 4.12t-1.78 5.99q-.77 3.44-.77 7.86 0 5.01 2 7.6 1.99 2.59 5.65 2.59 1.53 0 3.52-.97 2-.98 3.91-3.02 1.91-2.04 3.36-5.18 1.44-3.15 1.87-7.39l1.27-14.62q.17-1.27 1.11-2.12.93-.85 2.2-.85 1.45 0 2.3 1.06.85 1.06.85 2.42l-1.11 14.11q-.17 1.78.13 4.67.3 2.89 1.23 5.69.94 2.8 2.81 4.8t4.92 2q2.21 0 4.34-1.15 2.12-1.15 4.08-3.02 1.95-1.86 3.61-4.2 1.65-2.34 3.06-4.72 1.4-2.38 2.42-4.54 1.02-2.17 1.7-3.7.42-.93 1.19-1.44.76-.51 1.69-.51 1.53 0 2.38 1.02.85 1.02.85 2.21 0 .68-.25 1.27-.34.68-1.32 2.85-.98 2.16-2.55 4.93-1.57 2.76-3.78 5.82-2.21 3.05-4.93 5.64-2.71 2.6-5.9 4.25-3.19 1.66-6.84 1.66-5.01 0-8.33-2.85-3.31-2.84-4.92-8.11"></path><rect width="67.71" height="42.74" x="-33.85" y="-21.37" fill="none" rx="0" ry="0" transform="translate(237.5 431.85)"></rect><path fill="#750662" d="M296.35 452.46q2.97-2.97 6.03-6.07t5.95-6.5q2.89-3.4 5.4-7.09 2.5-3.7 4.46-7.86.42-.94 1.19-1.4.76-.47 1.69-.47 1.45 0 2.34 1.02.89 1.02.89 2.29 0 .68-.25 1.28-2.64 5.52-6.03 10.11-3.4 4.58-7.14 8.71-3.74 4.12-7.56 7.98-3.83 3.87-7.31 7.78-.34 5.86 0 11.76.34 5.91.34 12.53 0 5.44-.34 10.88t-1.1 10.41q-.77 4.97-2.08 9.3-1.32 4.33-3.36 7.52-2.04 3.19-4.76 5.01-2.72 1.83-6.37 1.83-6.03 0-9.26-4.16-3.23-4.17-3.23-11.64 0-4.08.89-8.76.89-4.67 2.51-9.64 1.61-4.97 3.86-10.07 2.26-5.09 4.89-9.94 2.63-4.84 5.61-9.21 2.97-4.38 6.03-7.95.17-4.08.38-8.45.21-4.38.47-8.12-2.21 3.91-5.48 6.29-3.27 2.38-7.18 2.38-6.46 0-10.11-4.33-3.65-4.34-3.65-11.9 0-5.52 1.06-10.07 1.06-4.54 2.29-7.81 1.23-3.27 2.25-5.01 1.02-1.75 1.02-1.66.94-1.45 2.64-1.45 1.44 0 2.33.98.9.98.9 2.25 0 .94-.51 1.7.08-.08-.81 1.4-.89 1.49-1.96 4.29-1.06 2.81-1.95 6.72-.89 3.9-.89 8.58 0 4.67 1.7 7.3 1.7 2.64 5.52 2.64 4.84 0 8.75-7.18t6.63-20.86q.17-1.1 1.02-1.83.85-.72 2.04-.72 1.36 0 2.29.94.93.93.93 2.29 0 .26-.33 3.02-.34 2.76-.81 7.35-.47 4.58-.98 10.66-.51 6.07-.85 12.95m-6.8 18.02q-3.82 5.52-7 11.64-3.19 6.11-5.48 12.15-2.3 6.03-3.57 11.55-1.28 5.52-1.28 9.86 0 4.41 1.45 6.92 1.44 2.51 4.58 2.51 2.81 0 4.97-2.76 2.17-2.77 3.66-7.86 1.49-5.1 2.25-12.37.76-7.26.76-16.27 0-3.65-.12-7.39-.13-3.74-.22-7.98"></path><rect width="60.23" height="121.5" x="-30.11" y="-60.75" fill="none" rx="0" ry="0" transform="translate(294.69 471.23)"></rect><path fill="#750662" d="M352.6 424.51q-1.28 5.95-3.66 11.09t-5.05 8.96q-2.68 3.83-5.4 6.04-2.72 2.2-4.67 2.37-2.21 0-4.89-2.2-2.67-2.21-5.09-6.16-2.43-3.95-4.04-9.39-1.61-5.44-1.61-11.81 0-5.61.97-8.5.98-2.89 1.24-3.31.42-.77 1.14-1.19.72-.43 1.66-.43 1.44 0 2.29.98.85.98.85 2.17 0 .85-.34 1.44-.08.17-.76 2.3-.68 2.12-.68 6.37 0 5.01 1.02 9.26t2.46 7.31q1.45 3.05 3.02 4.8 1.57 1.74 2.59 1.74.68 0 2-1.28 1.31-1.27 2.8-3.48 1.49-2.21 3.06-5.27 1.57-3.06 2.89-6.67 1.31-3.61 2.12-7.64.81-4.04.81-8.2 0-.85-.04-1.66-.05-.81-.05-1.66 0-1.44.9-2.42.89-.97 2.33-.97 1.11 0 2 .68.89.68 1.15 1.86 0-.08.33 1.36.34 1.45 1.15 3.7.81 2.25 2.04 4.88 1.23 2.64 2.97 4.89 1.75 2.25 4.04 3.78 2.29 1.53 5.27 1.53 1.61 0 2.8-.68 1.19-.68 1.96-1.53.76-.85 1.14-1.61.38-.77.38-.85.34-.94 1.15-1.49.81-.55 1.83-.55 1.36 0 2.29.98.94.97.94 2.25 0 .59-.26 1.19-.51 1.19-1.48 2.72-.98 1.52-2.51 2.88-1.53 1.36-3.61 2.26-2.08.89-4.63.89-2.98 0-5.52-1.06-2.55-1.07-4.64-2.72-2.08-1.66-3.78-3.74-1.7-2.08-2.88-4.21"></path><rect width="63.72" height="45.87" x="-31.86" y="-22.93" fill="none" rx="0" ry="0" transform="translate(350.55 430.54)"></rect><path fill="#750662" d="M385.99 441.93q1.78 2.46 4.58 3.95 2.81 1.49 6.88 1.49 4.17 0 7.57-2 3.39-2 6.2-5.22 2.8-3.23 5.01-7.23 2.21-3.99 3.99-7.98.43-.94 1.19-1.4.77-.47 1.7-.47 1.45 0 2.34 1.02.89 1.02.89 2.21 0 .42-.08.72-.09.3-.26.64-5.86 12.91-12.78 19.45-6.93 6.54-15.68 6.71-5.61 0-9.69-2.16-4.07-2.17-6.71-5.61-2.63-3.44-3.91-7.77-1.27-4.34-1.27-8.67t1.06-7.99q1.06-3.65 3.06-6.37t4.76-4.25q2.76-1.53 6.07-1.53 1.96 0 3.87.81 1.91.81 3.44 2.3 1.53 1.48 2.46 3.61.94 2.12.94 4.84 0 3.48-1.19 6.54t-3.27 5.69q-2.08 2.64-4.97 4.85-2.89 2.21-6.2 3.82m-2.55-5.52q2.63-1.11 4.8-2.81 2.16-1.7 3.69-3.73 1.53-2.04 2.38-4.3.85-2.25.85-4.54 0-2.55-1.27-3.87-1.28-1.31-2.98-1.31-2.29 0-3.91 1.27-1.61 1.28-2.63 3.31-1.02 2.04-1.49 4.55-.46 2.51-.46 4.97 0 1.53.29 3.23.3 1.7.73 3.23"></path><rect width="50.38" height="44.35" x="-25.19" y="-22.18" fill="none" rx="0" ry="0" transform="translate(401.65 432.15)"></rect><path fill="#750662" d="M429.15 416.36q-.34 2.29-.85 4.29-.51 1.99-.98 3.48t-.81 2.42q-.34.94-.42 1.02-.85 1.96-2.98 1.96-1.19 0-2.21-.9-1.02-.89-1.02-2.25 0-.51.17-.76.17-.26.51-1.02.34-.77.85-2.55.51-1.79 1.28-5.52-1.45 0-2.98-.09-1.52-.08-2.84-.59-1.32-.51-2.17-1.62-.85-1.1-.85-3.06 0-1.44.81-3.9.81-2.47 2.17-4.85 1.36-2.38 3.05-4.12 1.7-1.74 3.4-1.74 1.96 0 3.19 1.44 1.23 1.45 1.91 3.53.68 2.08.98 4.38.3 2.29.3 3.99 1.44 0 2.84-.04 1.4-.05 2.68-.05 4.84 0 7.39 2.13 2.55 2.12 2.55 6.97 0 1.95-.26 4.07-.25 2.13-.59 4.38-.34 2.25-.6 4.46-.25 2.21-.25 4.33 0 3.06.85 5.06.85 1.99 2.12 3.18 1.28 1.19 2.72 1.66 1.45.47 2.63.47 3.66 0 6.89-2.38 3.23-2.38 5.94-5.74 2.72-3.35 4.89-7.09 2.17-3.74 3.61-6.54.42-.77 1.19-1.19.76-.43 1.61-.43 1.53 0 2.38.98.85.98.85 2.17 0 .85-.34 1.53-1.95 3.48-4.54 7.86-2.59 4.37-5.91 8.19-3.31 3.83-7.43 6.46-4.12 2.63-9.05 2.63-3.06 0-5.78-1.14-2.72-1.15-4.71-3.32-2-2.16-3.19-5.35-1.19-3.18-1.19-7.18 0-4.25.85-8.45.85-4.21.85-8.03 0-1.61-.72-2.42-.72-.81-3.19-.81h-2.59q-1.4 0-3.01.09m-5.7-6.29q0-.6-.04-1.57-.04-.98-.17-1.91-.13-.94-.34-1.62-.21-.68-.47-.68-.25 0-.63.64-.39.64-.81 1.53-.43.89-.77 1.91t-.51 1.7Z"></path><rect width="65.25" height="56.41" x="-32.63" y="-28.2" fill="none" rx="0" ry="0" transform="translate(446.98 425.27)"></rect><path fill="#750662" d="M482.42 419.84q-.51 1.36-1.24 3.06-.72 1.7-1.65 3.57-.77 1.44-1.57 2.25-.81.81-2.09.81-1.44 0-2.29-.9-.85-.89-.85-2.08 0-.42.09-.72.08-.3.42-.98 2.21-4.25 3.27-7.43 1.06-3.19 1.74-6.67-.59-1.96-.85-3.31-.25-1.36-.25-2.81 0-2.8 1.19-4.54 1.19-1.75 3.31-1.75 1.96 0 3.1 1.7 1.15 1.7 1.15 4.17 0 1.36-.26 2.72-.25 1.36-.68 3.39 1.96 4.85 3.91 8.59 1.96 3.73 3.49 6.83 1.53 3.11 2.5 5.82.98 2.72.98 5.44 0 3.57-1.44 6.8-1.45 3.23-4.76 5.44.42.08.85.08h.85q4.84 0 8.92-2.21t7.35-5.73q3.27-3.53 5.82-7.82 2.55-4.29 4.41-8.54.85-1.95 2.38-1.95 1.45 0 2.25 1.02.81 1.02.81 2.21 0 .68-.25 1.27-.94 2.3-2.42 5.23-1.49 2.93-3.57 6.03t-4.8 6.07q-2.72 2.98-6.08 5.31-3.35 2.34-7.35 3.74-3.99 1.4-8.75 1.4-5.69 0-10.58-1.99-4.88-2-7.94-6.59-.51-.76-.51-1.61 0-1.28.98-2.25.98-.98 2.25-.98 1.36 0 2.29.93.09.17.6.56.51.38 1.23.85.72.46 1.7.8t2 .34q2.04 0 3.44-.85t2.25-2.08q.85-1.23 1.23-2.63t.38-2.42q0-2.13-.68-4.25-.68-2.13-1.74-4.25t-2.29-4.37q-1.23-2.26-2.25-4.72"></path><rect width="52.25" height="57.01" x="-26.13" y="-28.5" fill="none" rx="0" ry="0" transform="translate(497.65 427.35)"></rect><path fill="#750662" d="M527.36 441.93q1.78 2.46 4.59 3.95 2.8 1.49 6.88 1.49 4.16 0 7.56-2 3.4-2 6.2-5.22 2.81-3.23 5.02-7.23 2.21-3.99 3.99-7.98.42-.94 1.19-1.4.76-.47 1.7-.47 1.44 0 2.33 1.02.9 1.02.9 2.21 0 .42-.09.72-.08.3-.25.64-5.87 12.91-12.79 19.45-6.92 6.54-15.68 6.71-5.6 0-9.68-2.16-4.08-2.17-6.71-5.61-2.64-3.44-3.91-7.77-1.28-4.34-1.28-8.67t1.07-7.99q1.06-3.65 3.06-6.37 1.99-2.72 4.75-4.25 2.76-1.53 6.08-1.53 1.95 0 3.86.81 1.92.81 3.44 2.3 1.53 1.48 2.47 3.61.93 2.12.93 4.84 0 3.48-1.19 6.54t-3.27 5.69q-2.08 2.64-4.97 4.85-2.89 2.21-6.2 3.82m-2.55-5.52q2.64-1.11 4.8-2.81 2.17-1.7 3.7-3.73 1.53-2.04 2.38-4.3.85-2.25.85-4.54 0-2.55-1.28-3.87-1.27-1.31-2.97-1.31-2.3 0-3.91 1.27-1.61 1.28-2.63 3.31-1.02 2.04-1.49 4.55t-.47 4.97q0 1.53.3 3.23t.72 3.23"></path><rect width="50.39" height="44.35" x="-25.2" y="-22.18" fill="none" rx="0" ry="0" transform="translate(543.02 432.15)"></rect><path fill="#750662" d="M278.22 248.855c-66.917 0-121.668-54.75-121.668-121.668S211.302 5.519 278.22 5.519s121.668 54.75 121.668 121.668-54.75 121.668-121.668 121.668m0-235.225c-62.456 0-113.557 51.1-113.557 113.557s51.1 113.557 113.557 113.557 113.557-51.1 113.557-113.557S340.677 13.63 278.22 13.63"></path><path fill="#750662" d="M278.22 106.098c-2.433 0-4.056-1.622-4.056-4.056v-64.89c0-2.433 1.623-4.055 4.056-4.055s4.056 1.622 4.056 4.056v64.89c0 2.027-1.623 4.055-4.056 4.055"></path><path fill="#750662" d="M277.003 114.615c-1.216 0-2.433-.406-2.839-1.217l-27.983-30.417c-1.622-1.622-1.217-4.056.405-5.678 1.623-1.622 4.056-1.217 5.678.406l25.145 27.172L304.58 77.71c1.623-1.623 4.056-1.623 5.678 0 1.622 1.622 1.622 4.055 0 5.678l-30.417 30.417c-.81.405-1.622.81-2.839.81m49.884 92.874h-97.334c-2.028 0-3.65-1.217-4.056-3.245l-16.222-64.89c-.406-1.216 0-2.433.81-3.65.812-1.216 2.029-1.621 3.245-1.621h129.78c1.216 0 2.433.405 3.244 1.622.811 1.216.811 2.433.811 3.65l-16.222 64.89c-.406 1.622-2.028 3.244-4.056 3.244m-94.09-8.111h90.846l14.194-56.779H218.603z"></path><path fill="#750662" d="M242.53 207.488c-2.433 0-4.055-1.622-4.055-4.056v-64.89c0-2.433 1.622-4.055 4.056-4.055s4.055 1.622 4.055 4.056v64.89c0 2.027-1.622 4.055-4.055 4.055m17.844 0c-2.433 0-4.055-1.622-4.055-4.056v-64.89c0-2.433 1.622-4.055 4.055-4.055s4.056 1.622 4.056 4.056v64.89c0 2.027-1.622 4.055-4.056 4.055m17.845 0c-2.433 0-4.056-1.622-4.056-4.056v-64.89c0-2.433 1.623-4.055 4.056-4.055s4.056 1.622 4.056 4.056v64.89c0 2.027-1.623 4.055-4.056 4.055m17.845 0c-2.434 0-4.056-1.622-4.056-4.056v-64.89c0-2.433 1.622-4.055 4.056-4.055s4.055 1.622 4.055 4.056v64.89c0 2.027-1.622 4.055-4.055 4.055m17.844 0c-2.433 0-4.055-1.622-4.055-4.056v-64.89c0-2.433 1.622-4.055 4.055-4.055s4.056 1.622 4.056 4.056v64.89c0 2.027-1.622 4.055-4.056 4.055m39.745-59.617c-7.3 0-13.383-6.084-13.383-13.384 0-7.3 6.083-13.383 13.383-13.383 7.3 0 13.384 6.083 13.384 13.383 0 7.3-6.084 13.384-13.384 13.384m0-19.062c-2.839 0-5.272 2.434-5.272 5.273 0 2.838 2.433 5.272 5.272 5.272 2.84 0 5.272-2.434 5.272-5.272 0-2.84-2.433-5.273-5.272-5.273m-150.868 19.062c-7.3 0-13.384-6.084-13.384-13.384 0-7.3 6.084-13.383 13.384-13.383 7.3 0 13.383 6.083 13.383 13.383 0 7.3-5.678 13.384-13.383 13.384m0-19.062c-2.84 0-5.272 2.434-5.272 5.273 0 2.838 2.433 5.272 5.272 5.272 2.839 0 5.272-2.434 5.272-5.272.406-2.84-2.028-5.273-5.272-5.273"></path><path fill="#750662" d="M337.026 166.932H219.414c-2.434 0-4.056-1.622-4.056-4.056s1.622-4.055 4.056-4.055h117.612c2.434 0 4.056 1.622 4.056 4.055s-1.622 4.056-4.056 4.056m-6.083 20.278H225.497c-2.433 0-4.055-1.622-4.055-4.056s1.622-4.055 4.055-4.055h105.446c2.433 0 4.055 1.622 4.055 4.055s-1.622 4.056-4.055 4.056"></path></svg></svg>